<svg width="78" height="77" viewBox="0 0 78 77" fill="none" xmlns="http://www.w3.org/2000/svg">
<path d="M51.3502 0.037714C56.7332 -0.14105 58.0959 0.239177 61.3359 2.86246L74.7542 13.3838C76.9645 15.1879 77.7066 15.6867 77.6105 17.5219L74.7961 71.2243C74.6197 74.5898 73.2891 76.5154 68.9867 76.5952L18.1455 77C14.9198 76.9848 13.4122 76.4462 11.8394 74.2147L2.27812 60.3662C0.568243 57.8198 -0.100388 55.9469 0.0120047 53.8023L2.51362 6.06856C2.65786 3.31634 4.00448 1.0847 7.5393 0.964258L51.3502 0.037714ZM69.8634 18.8049L19.9479 19.1028C18.1036 19.1609 17.4428 20.047 17.3385 22.0353L14.9491 67.6268C14.8208 70.0769 15.9973 71.0573 18.7611 71.0501L66.5254 70.7909C69.2906 70.7838 69.6865 69.1144 69.7908 67.124L72.164 21.8393C72.2682 19.8521 71.5592 18.7403 69.8634 18.8049ZM64.2205 26.9451C64.4535 28.3394 64.0763 29.7 62.6876 29.7825L60.3685 30.1201L58.6045 63.7782C56.5565 64.7444 54.6871 65.2599 53.1565 65.1797C50.7061 65.0512 50.1322 64.2537 48.4168 61.864L34.6436 37.5165L33.4489 60.3118L38.1418 61.6332C38.1397 61.6704 37.9713 64.3838 34.1661 64.1844L23.5712 64.2436C23.2965 63.6148 23.6837 62.1019 24.7711 61.8517L27.567 61.2324L29.1466 31.092L25.3352 30.5855C25.1005 29.1912 25.9695 27.2433 28.1226 27.2013L39.4941 27.0314L53.862 51.7178L54.9685 30.6039L51.0111 29.9384C50.7937 28.2374 52.0812 27.0774 53.6205 27.0059L64.2205 26.9451ZM59.596 6.76067C58.2732 5.61795 56.4999 4.29623 52.963 4.41835L10.8454 5.27929C9.3077 5.35096 8.96244 6.1003 9.5397 6.74547L15.2667 11.8008C17.6102 13.9175 18.5362 13.8142 23.1483 13.7485L66.6144 13.4173C67.5332 13.4655 66.8181 12.5098 66.5195 12.3408L59.596 6.76067Z" fill="black"/>
</svg>
